700 0 1 0           9 Cobalt v4 16 ACIS 7.0 Unknown 24 Thu Jul 18 22:12:55 2002 25.39999999999999858 9.999999999999999547e-07 1.000000000000000036e-10 body $1 -1 $-1 $2 $-1 $3 #rgb_color-st-attrib $-1 -1 $4 $-1 $0 0 1 0 #lump $-1 -1 $-1 $-1 $5 $0 #transform $-1 -1 1 0 0 0 1 0 0 0 1 0 0 0 0.03937007874015747977 no_rotate no_reflect no_shear #id_attribute-st-attrib $-1 -1 $-1 $1 $0 3 #shell $-1 -1 $-1 $-1 $-1 $6 $-1 $2 #face $7 -1 $-1 $8 $9 $5 $-1 $10 reversed single #id-tsl-attrib $-1 -1 $11 $-1 $6 2954 #face $12 -1 $-1 $13 $14 $5 $-1 $15 reversed single #loop $-1 -1 $-1 $-1 $16 $6 #sphere-surface $-1 -1 $-1 0 65 0 20 1 0 0 0 0 1 forward_v I I I I #colour-tsl-attrib $-1 -1 $-1 $7 $6 7 #id-tsl-attrib $-1 -1 $17 $-1 $8 2955 #face $18 -1 $-1 $19 $20 $5 $-1 $21 reversed single #loop $-1 -1 $-1 $-1 $22 $8 #sphere-surface $-1 -1 $-1 25 -65 -30 20 1 0 0 0 0 1 forward_v I I I I #coedge $-1 -1 $-1 $16 $16 $23 $24 reversed $9 $-1 #colour-tsl-attrib $-1 -1 $-1 $12 $8 7 #id-tsl-attrib $-1 -1 $25 $-1 $13 2956 #face $26 -1 $-1 $27 $28 $5 $-1 $29 reversed single #loop $-1 -1 $-1 $-1 $30 $13 #sphere-surface $-1 -1 $-1 25 -65 0 20 1 0 0 0 0 1 forward_v I I I I #coedge $-1 -1 $-1 $22 $22 $31 $32 reversed $14 $-1 #coedge $-1 -1 $-1 $23 $23 $16 $24 forward $33 $-1 #edge $34 -1 $-1 $35 -3.141592653589800221 $35 3.141592653589786011 $23 $36 forward @7 unknown #colour-tsl-attrib $-1 -1 $-1 $18 $13 7 #id-tsl-attrib $-1 -1 $37 $-1 $19 2957 #face $38 -1 $-1 $39 $40 $5 $-1 $41 reversed single #loop $-1 -1 $-1 $-1 $42 $19 #sphere-surface $-1 -1 $-1 25 -65 30 20 1 0 0 0 0 1 forward_v I I I I #coedge $-1 -1 $-1 $30 $30 $43 $44 reversed $20 $-1 #coedge $-1 -1 $-1 $31 $31 $22 $32 forward $45 $-1 #edge $46 -1 $-1 $47 -3.141592653589800666 $47 3.141592653589785566 $31 $48 forward @7 unknown #loop $-1 -1 $-1 $49 $23 $50 #ptlist-eye-attrib $-1 -1 $51 $-1 $24 #vertex $-1 -1 $-1 $24 $52 #ellipse-curve $-1 -1 $-1 0 50 0 0 -1 0 0 0 -13.22875655532300065 1 I I #colour-tsl-attrib $-1 -1 $-1 $26 $19 7 #id-tsl-attrib $-1 -1 $53 $-1 $27 2958 #face $54 -1 $-1 $55 $56 $5 $-1 $57 reversed single #loop $-1 -1 $-1 $-1 $58 $27 #sphere-surface $-1 -1 $-1 -25 -65 -30 20 1 0 0 0 0 1 forward_v I I I I #coedge $-1 -1 $-1 $42 $42 $59 $60 reversed $28 $-1 #coedge $-1 -1 $-1 $43 $43 $30 $44 forward $61 $-1 #edge $62 -1 $-1 $63 -3.141592653589800666 $63 3.141592653589785566 $43 $64 forward @7 unknown #loop $-1 -1 $-1 $61 $31 $65 #ptlist-eye-attrib $-1 -1 $66 $-1 $32 #vertex $-1 -1 $-1 $32 $67 #ellipse-curve $-1 -1 $-1 25 -50 -30 0 1 0 0 0 13.22875655532300065 1 I I #loop $-1 -1 $-1 $-1 $68 $50 #face $69 -1 $-1 $70 $33 $5 $-1 $71 reversed single #id-tsl-attrib $-1 -1 $-1 $34 $24 3001 #point $-1 -1 $-1 9.237596680215350222e-14 50 13.22875655532300065 #colour-tsl-attrib $-1 -1 $-1 $38 $27 7 #id-tsl-attrib $-1 -1 $72 $-1 $39 2959 #face $73 -1 $-1 $74 $75 $5 $-1 $76 reversed single #loop $-1 -1 $-1 $-1 $77 $39 #sphere-surface $-1 -1 $-1 -25 -65 0 20 1 0 0 0 0 1 forward_v I I I I #coedge $-1 -1 $-1 $58 $58 $78 $79 reversed $40 $-1 #coedge $-1 -1 $-1 $59 $59 $42 $60 forward $80 $-1 #edge $81 -1 $-1 $82 -3.141592653589800666 $82 3.141592653589785566 $59 $83 forward @7 unknown #loop $-1 -1 $-1 $80 $43 $65 #ptlist-eye-attrib $-1 -1 $84 $-1 $44 #vertex $-1 -1 $-1 $44 $85 #ellipse-curve $-1 -1 $-1 25 -50 0 0 1 0 0 0 13.22875655532300065 1 I I #face $86 -1 $-1 $87 $45 $5 $-1 $88 reversed single #id-tsl-attrib $-1 -1 $-1 $46 $32 3002 #point $-1 -1 $-1 25.00000000000009948 -50 -43.22875655532300243 #coedge $-1 -1 $-1 $89 $90 $91 $92 reversed $49 $-1 #id-tsl-attrib $-1 -1 $93 $-1 $50 2985 #face $94 -1 $-1 $95 $96 $5 $-1 $97 forward single #plane-surface $-1 -1 $-1 0 50 0 0 -1 0 0 0 -1 forward_v I I I I #colour-tsl-attrib $-1 -1 $-1 $54 $39 7 #id-tsl-attrib $-1 -1 $98 $-1 $55 2960 #face $99 -1 $-1 $100 $101 $5 $-1 $102 reversed single #loop $-1 -1 $-1 $-1 $103 $55 #sphere-surface $-1 -1 $-1 -25 -65 30 20 1 0 0 0 0 1 forward_v I I I I #coedge $-1 -1 $-1 $77 $77 $104 $105 reversed $56 $-1 #coedge $-1 -1 $-1 $78 $78 $58 $79 forward $106 $-1 #edge $107 -1 $-1 $108 -3.141592653589800666 $108 3.141592653589785566 $78 $109 forward @7 unknown #loop $-1 -1 $-1 $106 $59 $65 #ptlist-eye-attrib $-1 -1 $110 $-1 $60 #vertex $-1 -1 $-1 $60 $111 #ellipse-curve $-1 -1 $-1 25 -50 30 0 1 0 0 0 13.22875655532300065 1 I I #id-tsl-attrib $-1 -1 $-1 $62 $44 3003 #point $-1 -1 $-1 25.00000000000009948 -50 -13.22875655532300065 #id-tsl-attrib $-1 -1 $112 $-1 $65 2992 #face $113 -1 $-1 $114 $115 $5 $-1 $116 forward single #plane-surface $-1 -1 $-1 0 -50 0 0 1 0 0 0 1 forward_v I I I I #coedge $-1 -1 $-1 $117 $68 $118 $119 reversed $49 $-1 #coedge $-1 -1 $-1 $68 $117 $120 $121 reversed $49 $-1 #coedge $-1 -1 $-1 $122 $123 $68 $92 forward $124 $-1 #edge $125 -1 $-1 $126 -45 $127 45 $68 $128 forward @7 unknown #colour-tsl-attrib $-1 -1 $-1 $69 $50 1 #id-tsl-attrib $-1 -1 $129 $-1 $70 2986 #face $130 -1 $-1 $131 $132 $5 $-1 $133 reversed single #loop $-1 -1 $-1 $-1 $134 $70 #cone-surface $-1 -1 $-1 -2.5 45 45 -1 0 0 0 3.535533905932739973 3.535533905932739973 1 I I 0 1 5.000000000000003553 forward I I I I #colour-tsl-attrib $-1 -1 $-1 $73 $55 7 #id-tsl-attrib $-1 -1 $135 $-1 $74 2961 #face $136 -1 $-1 $137 $138 $5 $-1 $139 reversed single #loop $-1 -1 $-1 $-1 $140 $74 #sphere-surface $-1 -1 $-1 -65 -20 -20 20 1 0 0 0 0 1 forward_v I I I I #coedge $-1 -1 $-1 $103 $103 $141 $142 reversed $75 $-1 #coedge $-1 -1 $-1 $104 $104 $77 $105 forward $143 $-1 #edge $144 -1 $-1 $145 -3.141592653589800666 $145 3.141592653589785566 $104 $146 forward @7 unknown #loop $-1 -1 $-1 $143 $78 $65 #ptlist-eye-attrib $-1 -1 $147 $-1 $79 #vertex $-1 -1 $-1 $79 $148 #ellipse-curve $-1 -1 $-1 -25 -50 -30 0 1 0 0 0 13.22875655532300065 1 I I #id-tsl-attrib $-1 -1 $-1 $81 $60 3004 #point $-1 -1 $-1 25.00000000000009948 -50 16.77124344467700112 #colour-tsl-attrib $-1 -1 $-1 $86 $65 1 #id-tsl-attrib $-1 -1 $149 $-1 $87 2993 #face $150 -1 $-1 $151 $152 $5 $-1 $153 forward single #loop $-1 -1 $-1 $-1 $154 $87 #cone-surface $-1 -1 $-1 45 -45 -2.5 0 0 -1 3.535533905932739973 -3.535533905932739973 0 1 I I 0 1 5.000000000000003553 forward I I I I #coedge $-1 -1 $-1 $90 $89 $155 $156 reversed $49 $-1 #coedge $-1 -1 $-1 $134 $157 $89 $119 forward $96 $-1 #edge $158 -1 $-1 $159 -45 $126 45 $89 $160 forward @7 unknown #coedge $-1 -1 $-1 $161 $162 $90 $121 forward $163 $-1 #edge $164 -1 $-1 $127 -45 $165 45 $90 $166 forward @7 unknown #coedge $-1 -1 $-1 $167 $91 $168 $169 reversed $124 $-1 #coedge $-1 -1 $-1 $91 $167 $170 $171 forward $124 $-1 #loop $-1 -1 $-1 $-1 $91 $172 #ptlist-eye-attrib $-1 -1 $173 $-1 $92 #vertex $-1 -1 $-1 $119 $174 #vertex $-1 -1 $-1 $92 $175 #straight-curve $-1 -1 $-1 -45 50 0 0 0 -1 I I #colour-tsl-attrib $-1 -1 $-1 $94 $70 1 #id-tsl-attrib $-1 -1 $176 $-1 $95 2987 #face $177 -1 $-1 $178 $179 $5 $-1 $180 forward single #loop $-1 -1 $-1 $181 $182 $95 #plane-surface $-1 -1 $-1 -50 0 0 1 0 0 0 0 -1 forward_v I I I I #coedge $-1 -1 $-1 $183 $118 $184 $185 reversed $96 $-1 #colour-tsl-attrib $-1 -1 $-1 $99 $74 7 #id-tsl-attrib $-1 -1 $186 $-1 $100 2962 #face $187 -1 $-1 $188 $189 $5 $-1 $190 reversed single #loop $-1 -1 $-1 $-1 $191 $100 #sphere-surface $-1 -1 $-1 -65 -20 20 20 1 0 0 0 0 1 forward_v I I I I #coedge $-1 -1 $-1 $140 $140 $182 $192 reversed $101 $-1 #coedge $-1 -1 $-1 $141 $141 $103 $142 forward $193 $-1 #edge $194 -1 $-1 $195 -3.141592653589800666 $195 3.141592653589785566 $141 $196 forward @7 unknown #loop $-1 -1 $-1 $193 $104 $65 #ptlist-eye-attrib $-1 -1 $197 $-1 $105 #vertex $-1 -1 $-1 $105 $198 #ellipse-curve $-1 -1 $-1 -25 -50 0 0 1 0 0 0 13.22875655532300065 1 I I #id-tsl-attrib $-1 -1 $-1 $107 $79 3005 #point $-1 -1 $-1 -24.99999999999990052 -50 -43.22875655532300243 #colour-tsl-attrib $-1 -1 $-1 $113 $87 1 #id-tsl-attrib $-1 -1 $199 $-1 $114 2994 #face $200 -1 $-1 $201 $202 $5 $-1 $203 forward single #loop $-1 -1 $-1 $-1 $204 $114 #sphere-surface $-1 -1 $-1 45 -45 45 5 1 0 0 0 0 1 forward_v I I I I #coedge $-1 -1 $-1 $205 $206 $207 $208 reversed $115 $-1 #coedge $-1 -1 $-1 $209 $210 $117 $156 forward $211 $-1 #edge $212 -1 $-1 $165 -45 $159 45 $117 $213 forward @7 unknown #coedge $-1 -1 $-1 $118 $183 $214 $215 reversed $96 $-1 #ptlist-eye-attrib $-1 -1 $216 $-1 $119 #vertex $-1 -1 $-1 $119 $217 #straight-curve $-1 -1 $-1 0 50 45 -1 0 0 I I #coedge $-1 -1 $-1 $218 $120 $219 $220 forward $163 $-1 #coedge $-1 -1 $-1 $120 $218 $221 $222 reversed $163 $-1 #loop $-1 -1 $-1 $-1 $162 $223 #ptlist-eye-attrib $-1 -1 $224 $-1 $121 #vertex $-1 -1 $-1 $225 $226 #straight-curve $-1 -1 $-1 0 50 -45 1 0 0 I I #coedge $-1 -1 $-1 $123 $122 $227 $228 forward $124 $-1 #coedge $-1 -1 $-1 $221 $229 $122 $169 forward $230 $-1 #edge $231 -1 $-1 $232 -0.785398163397448279 $127 0.785398163397448279 $168 $233 forward @7 unknown #coedge $-1 -1 $-1 $234 $184 $123 $171 reversed $235 $-1 #edge $236 -1 $-1 $237 -0.785398163397448279 $126 0.785398163397448279 $123 $238 forward @7 unknown #face $239 -1 $-1 $240 $124 $5 $-1 $241 forward single #id-tsl-attrib $-1 -1 $-1 $125 $92 3025 #point $-1 -1 $-1 -45 50 45 #point $-1 -1 $-1 -45 50 -45 #colour-tsl-attrib $-1 -1 $-1 $130 $95 1 #id-tsl-attrib $-1 -1 $242 $-1 $131 2988 #face $243 -1 $-1 $244 $245 $5 $-1 $246 forward single #loop $-1 -1 $-1 $-1 $247 $131 #cone-surface $-1 -1 $-1 -2.5 -45 -45 -1 0 0 0 -3.535533905932739973 -3.535533905932739973 1 I I 0 1 5.000000000000003553 forward I I I I #loop $-1 -1 $-1 $248 $249 $95 #coedge $-1 -1 $-1 $182 $182 $140 $192 forward $132 $-1 #coedge $-1 -1 $-1 $157 $134 $250 $251 forward $96 $-1 #coedge $-1 -1 $-1 $170 $234 $134 $185 forward $235 $-1 #edge $252 -1 $-1 $253 -0.785398163397448279 $126 0.785398163397448279 $134 $254 forward @7 unknown #colour-tsl-attrib $-1 -1 $-1 $136 $100 7 #id-tsl-attrib $-1 -1 $255 $-1 $137 2963 #face $256 -1 $-1 $257 $258 $5 $-1 $259 reversed single #loop $-1 -1 $-1 $-1 $260 $137 #sphere-surface $-1 -1 $-1 -65 20 20 20 1 0 0 0 0 1 forward_v I I I I #coedge $-1 -1 $-1 $191 $191 $249 $261 reversed $138 $-1 #edge $262 -1 $-1 $263 -3.141592653589800666 $263 3.141592653589785566 $182 $264 forward @7 unknown #loop $-1 -1 $-1 $265 $141 $65 #ptlist-eye-attrib $-1 -1 $266 $-1 $142 #vertex $-1 -1 $-1 $142 $267 #ellipse-curve $-1 -1 $-1 -25 -50 30 0 1 0 0 0 13.22875655532300065 1 I I #id-tsl-attrib $-1 -1 $-1 $144 $105 3006 #point $-1 -1 $-1 -24.99999999999990052 -50 -13.22875655532300065 #colour-tsl-attrib $-1 -1 $-1 $150 $114 1 #id-tsl-attrib $-1 -1 $268 $-1 $151 2995 #face $269 -1 $-1 $270 $271 $5 $-1 $272 forward single #loop $-1 -1 $-1 $-1 $273 $151 #cone-surface $-1 -1 $-1 -2.5 -45 45 1 0 0 0 -3.535533905932739973 3.535533905932739973 1 I I 0 1 5.000000000000003553 forward I I I I #coedge $-1 -1 $-1 $274 $275 $276 $277 forward $152 $-1 #coedge $-1 -1 $-1 $278 $154 $279 $280 forward $115 $-1 #coedge $-1 -1 $-1 $154 $278 $281 $282 forward $115 $-1 #coedge $-1 -1 $-1 $283 $284 $154 $208 forward $245 $-1 #edge $285 -1 $-1 $286 -0.785398163397448279 $287 0.785398163397448279 $154 $288 forward @7 unknown #coedge $-1 -1 $-1 $289 $155 $290 $291 forward $211 $-1 #coedge $-1 -1 $-1 $155 $289 $292 $225 reversed $211 $-1 #loop $-1 -1 $-1 $-1 $210 $293 #ptlist-eye-attrib $-1 -1 $294 $-1 $156 #straight-curve $-1 -1 $-1 45 50 0 0 0 1 I I #coedge $-1 -1 $-1 $295 $290 $157 $215 forward $296 $-1 #edge $297 -1 $-1 $159 -0.785398163397448279 $298 0.785398163397448279 $214 $299 forward @7 unknown #id-tsl-attrib $-1 -1 $-1 $158 $119 3047 #point $-1 -1 $-1 45 50 45 #coedge $-1 -1 $-1 $162 $161 $300 $301 forward $163 $-1 #coedge $-1 -1 $-1 $292 $302 $161 $220 reversed $303 $-1 #edge $304 -1 $-1 $165 -0.785398163397448279 $305 0.785398163397448279 $161 $306 forward @7 unknown #coedge $-1 -1 $-1 $229 $168 $162 $222 forward $230 $-1 #edge $307 -1 $-1 $127 -0.785398163397448279 $308 0.785398163397448279 $162 $309 forward @7 unknown #face $310 -1 $-1 $50 $163 $5 $-1 $311 forward single #id-tsl-attrib $-1 -1 $-1 $164 $121 3045 #edge $312 -1 $-1 $165 -0.785398163397448279 $313 0.785398163397448279 $210 $314 forward @7 unknown #point $-1 -1 $-1 45 50 -45 #coedge $-1 -1 $-1 $315 $316 $167 $228 reversed $317 $-1 #edge $318 -1 $-1 $232 -45 $237 45 $227 $319 forward @7 unknown #coedge $-1 -1 $-1 $168 $221 $320 $321 reversed $230 $-1 #loop $-1 -1 $-1 $-1 $221 $240 #ptlist-eye-attrib $-1 -1 $322 $-1 $169 #vertex $-1 -1 $-1 $228 $323 #ellipse-curve $-1 -1 $-1 -45 45 -45 0 0 -1 -3.535533905932739973 3.535533905932739973 0 1 I I #coedge $-1 -1 $-1 $184 $170 $324 $325 reversed $235 $-1 #loop $-1 -1 $-1 $-1 $184 $326 #ptlist-eye-attrib $-1 -1 $327 $-1 $171 #vertex $-1 -1 $-1 $228 $328 #ellipse-curve $-1 -1 $-1 -45 45 45 0 0 -1 -3.535533905932739973 3.535533905932739973 0 1 I I #id-tsl-attrib $-1 -1 $329 $-1 $172 2976 #face $330 -1 $-1 $331 $230 $5 $-1 $332 forward single #cone-surface $-1 -1 $-1 -45 45 0 0 0 -1 -3.535533905932739973 3.535533905932739973 0 1 I I 0 1 5.000000000000003553 forward I I I I #colour-tsl-attrib $-1 -1 $-1 $177 $131 1 #id-tsl-attrib $-1 -1 $333 $-1 $178 2989 #face $334 -1 $-1 $335 $336 $5 $-1 $337 forward single #loop $-1 -1 $-1 $-1 $283 $178 #sphere-surface $-1 -1 $-1 45 -45 -45 5 1 0 0 0 0 1 forward_v I I I I #coedge $-1 -1 $-1 $338 $339 $340 $341 reversed $179 $-1 #loop $-1 -1 $-1 $342 $343 $95 #coedge $-1 -1 $-1 $249 $249 $191 $261 forward $181 $-1 #coedge $-1 -1 $-1 $344 $345 $183 $251 reversed $346 $-1 #edge $347 -1 $-1 $253 -45 $298 45 $250 $348 forward @7 unknown #ptlist-eye-attrib $-1 -1 $349 $-1 $185 #vertex $-1 -1 $-1 $185 $350 #ellipse-curve $-1 -1 $-1 -45 45 45 -1 0 0 0 3.535533905932739973 3.535533905932739973 1 I I #colour-tsl-attrib $-1 -1 $-1 $187 $137 7 #id-tsl-attrib $-1 -1 $351 $-1 $188 2964 #face $352 -1 $-1 $353 $354 $5 $-1 $355 reversed single #loop $-1 -1 $-1 $-1 $356 $188 #sphere-surface $-1 -1 $-1 -65 20 -20 20 1 0 0 0 0 1 forward_v I I I I #coedge $-1 -1 $-1 $260 $260 $343 $357 reversed $189 $-1 #edge $358 -1 $-1 $359 -3.141592653589800666 $359 3.141592653589785566 $249 $360 forward @7 unknown #ptlist-eye-attrib $-1 -1 $361 $-1 $192 #vertex $-1 -1 $-1 $192 $362 #ellipse-curve $-1 -1 $-1 -50 -20 -20 1 0 0 0 0 -13.22875655532300065 1 I I #loop $-1 -1 $-1 $-1 $363 $65 #id-tsl-attrib $-1 -1 $-1 $194 $142 3007 #point $-1 -1 $-1 -24.99999999999990052 -50 16.77124344467700112 #colour-tsl-attrib $-1 -1 $-1 $200 $151 1 #id-tsl-attrib $-1 -1 $364 $-1 $201 2996 #face $365 -1 $-1 $366 $367 $5 $-1 $368 reversed single #loop $-1 -1 $-1 $-1 $276 $201 #cone-surface $-1 -1 $-1 45 0 45 0 1 0 3.535533905932739973 0 3.535533905932739973 1 I I 0 1 5.000000000000003553 forward I I I I #coedge $-1 -1 $-1 $369 $370 $371 $372 reversed $202 $-1 #coedge $-1 -1 $-1 $275 $204 $373 $374 reversed $152 $-1 #coedge $-1 -1 $-1 $204 $274 $278 $375 forward $152 $-1 #coedge $-1 -1 $-1 $376 $377 $204 $277 reversed $271 $-1 #edge $378 -1 $-1 $379 -0.785398163397448279 $380 0.785398163397448279 $276 $381 forward @7 unknown #coedge $-1 -1 $-1 $206 $205 $275 $375 reversed $115 $-1 #coedge $-1 -1 $-1 $382 $383 $205 $280 reversed $384 $-1 #edge $385 -1 $-1 $286 -45 $379 45 $279 $386 forward @7 unknown #coedge $-1 -1 $-1 $387 $388 $206 $282 reversed $265 $-1 #edge $389 -1 $-1 $390 -45 $287 45 $281 $391 forward @7 unknown #coedge $-1 -1 $-1 $284 $207 $392 $393 forward $245 $-1 #coedge $-1 -1 $-1 $207 $283 $394 $395 reversed $245 $-1 #ptlist-eye-attrib $-1 -1 $396 $-1 $208 #vertex $-1 -1 $-1 $208 $397 #vertex $-1 -1 $-1 $282 $398 #ellipse-curve $-1 -1 $-1 45 -45 -45 0 0 -1 3.535533905932739973 -3.535533905932739973 0 1 I I #coedge $-1 -1 $-1 $210 $209 $399 $400 forward $211 $-1 #coedge $-1 -1 $-1 $214 $295 $209 $291 reversed $296 $-1 #edge $401 -1 $-1 $159 -0.785398163397448279 $402 0.785398163397448279 $209 $403 forward @7 unknown #coedge $-1 -1 $-1 $302 $219 $210 $225 forward $303 $-1 #face $404 -1 $-1 $405 $211 $5 $-1 $406 forward single #id-tsl-attrib $-1 -1 $-1 $212 $156 3048 #coedge $-1 -1 $-1 $290 $214 $407 $408 forward $296 $-1 #loop $-1 -1 $-1 $-1 $295 $366 #ptlist-eye-attrib $-1 -1 $409 $-1 $215 #vertex $-1 -1 $-1 $251 $410 #ellipse-curve $-1 -1 $-1 45 45 45 1 0 0 0 3.535533905932739973 3.535533905932739973 1 I I #coedge $-1 -1 $-1 $411 $412 $218 $301 reversed $413 $-1 #edge $414 -1 $-1 $305 -45 $308 45 $300 $415 forward @7 unknown #coedge $-1 -1 $-1 $219 $292 $416 $417 forward $303 $-1 #loop $-1 -1 $-1 $-1 $302 $335 #ptlist-eye-attrib $-1 -1 $418 $-1 $220 #vertex $-1 -1 $-1 $419 $420 #ellipse-curve $-1 -1 $-1 45 45 -45 -1 0 0 0 3.535533905932739973 -3.535533905932739973 1 I I #ptlist-eye-attrib $-1 -1 $421 $-1 $222 #vertex $-1 -1 $-1 $301 $422 #ellipse-curve $-1 -1 $-1 -45 45 -45 -1 0 0 0 3.535533905932739973 -3.535533905932739973 1 I I #id-tsl-attrib $-1 -1 $423 $-1 $223 2984 #cone-surface $-1 -1 $-1 -2.5 45 -45 1 0 0 0 3.535533905932739973 -3.535533905932739973 1 I I 0 1 5.000000000000003553 forward I I I I #ptlist-eye-attrib $-1 -1 $424 $-1 $225 #vertex $-1 -1 $-1 $400 $425 #ellipse-curve $-1 -1 $-1 45 45 -45 0 0 -1 3.535533905932739973 3.535533905932739973 0 1 I I #coedge $-1 -1 $-1 $426 $227 $427 $428 reversed $317 $-1 #coedge $-1 -1 $-1 $227 $426 $429 $430 reversed $317 $-1 #loop $-1 -1 $-1 $-1 $227 $95 #ptlist-eye-attrib $-1 -1 $431 $-1 $228 #straight-curve $-1 -1 $-1 -50 45 0 0 0 1 I I #coedge $-1 -1 $-1 $432 $427 $229 $321 forward $433 $-1 #edge $434 -1 $-1 $232 -0.785398163397448279 $308 0.785398163397448279 $320 $435 forward @7 unknown #id-tsl-attrib $-1 -1 $-1 $231 $169 3026 #point $-1 -1 $-1 -50 45 -45 #coedge $-1 -1 $-1 $429 $436 $234 $325 forward $437 $-1 #edge $438 -1 $-1 $253 -0.785398163397448279 $237 0.785398163397448279 $324 $439 forward @7 unknown #face $440 -1 $-1 $172 $235 $5 $-1 $441 forward single #id-tsl-attrib $-1 -1 $-1 $236 $171 3023 #point $-1 -1 $-1 -50 45 45 #colour-tsl-attrib $-1 -1 $-1 $239 $172 1 #id-tsl-attrib $-1 -1 $442 $-1 $240 2977 #face $443 -1 $-1 $444 $433 $5 $-1 $445 forward single #sphere-surface $-1 -1 $-1 -45 45 -45 5 1 0 0 0 0 1 forward_v I I I I #colour-tsl-attrib $-1 -1 $-1 $243 $178 1 #id-tsl-attrib $-1 -1 $446 $-1 $244 2990 #face $447 -1 $-1 $65 $303 $5 $-1 $448 forward single #loop $-1 -1 $-1 $-1 $449 $244 #cone-surface $-1 -1 $-1 45 0 -45 0 -1 0 3.535533905932739973 0 -3.535533905932739973 1 I I 0 1 5.000000000000003553 forward I I I I #coedge $-1 -1 $-1 $392 $247 $450 $451 forward $179 $-1 #coedge $-1 -1 $-1 $247 $392 $388 $452 forward $179 $-1 #coedge $-1 -1 $-1 $453 $454 $247 $341 forward $455 $-1 #edge $456 -1 $-1 $457 -0.785398163397448279 $458 0.785398163397448279 $247 $459 forward @7 unknown #loop $-1 -1 $-1 $317 $460 $95 #coedge $-1 -1 $-1 $343 $343 $260 $357 forward $248 $-1 #coedge $-1 -1 $-1 $461 $250 $436 $462 reversed $346 $-1 #coedge $-1 -1 $-1 $250 $461 $377 $463 reversed $346 $-1 #loop $-1 -1 $-1 $-1 $344 $405 #ptlist-eye-attrib $-1 -1 $464 $-1 $251 #straight-curve $-1 -1 $-1 0 45 50 1 0 0 I I #id-tsl-attrib $-1 -1 $-1 $252 $185 3022 #point $-1 -1 $-1 -45 45 50 #colour-tsl-attrib $-1 -1 $-1 $256 $188 7 #id-tsl-attrib $-1 -1 $465 $-1 $257 2965 #face $466 -1 $-1 $467 $468 $5 $-1 $469 reversed single #loop $-1 -1 $-1 $-1 $470 $257 #sphere-surface $-1 -1 $-1 65 0 0 20 1 0 0 0 0 1 forward_v I I I I #coedge $-1 -1 $-1 $356 $356 $460 $471 reversed $258 $-1 #edge $472 -1 $-1 $473 -3.141592653589800666 $473 3.141592653589785566 $343 $474 forward @7 unknown #ptlist-eye-attrib $-1 -1 $475 $-1 $261 #vertex $-1 -1 $-1 $261 $476 #ellipse-curve $-1 -1 $-1 -50 -20 20 1 0 0 0 0 -13.22875655532300065 1 I I #id-tsl-attrib $-1 -1 $-1 $262 $192 3008 #point $-1 -1 $-1 -50 -19.99999999999990052 -6.771243444677049972 #coedge $-1 -1 $-1 $388 $387 $477 $478 reversed $265 $-1 #colour-tsl-attrib $-1 -1 $-1 $269 $201 1 #id-tsl-attrib $-1 -1 $479 $-1 $270 2997 #face $480 -1 $-1 $293 $296 $5 $-1 $481 forward single #loop $-1 -1 $-1 $482 $483 $270 #plane-surface $-1 -1 $-1 50 0 0 -1 0 0 0 0 1 forward_v I I I I #coedge $-1 -1 $-1 $373 $273 $387 $484 forward $202 $-1 #coedge $-1 -1 $-1 $273 $373 $461 $485 forward $202 $-1 #coedge $-1 -1 $-1 $486 $487 $273 $372 forward $488 $-1 #edge $489 -1 $-1 $490 -0.785398163397448279 $491 0.785398163397448279 $273 $492 forward @7 unknown #coedge $-1 -1 $-1 $370 $369 $274 $374 forward $202 $-1 #edge $493 -1 $-1 $390 -0.785398163397448279 $380 0.785398163397448279 $373 $494 forward @7 unknown #edge $495 -1 $-1 $390 -0.785398163397448279 $379 0.785398163397448279 $275 $496 forward @7 unknown #coedge $-1 -1 $-1 $407 $276 $383 $497 forward $271 $-1 #coedge $-1 -1 $-1 $276 $407 $345 $463 forward $271 $-1 #ptlist-eye-attrib $-1 -1 $498 $-1 $277 #vertex $-1 -1 $-1 $280 $499 #vertex $-1 -1 $-1 $463 $500 #ellipse-curve $-1 -1 $-1 45 -45 45 0 -1 0 3.535533905932739973 0 3.535533905932739973 1 I I #coedge $-1 -1 $-1 $399 $279 $501 $502 reversed $384 $-1 #coedge $-1 -1 $-1 $279 $399 $376 $497 reversed $384 $-1 #loop $-1 -1 $-1 $-1 $382 $270 #ptlist-eye-attrib $-1 -1 $503 $-1 $280 #straight-curve $-1 -1 $-1 50 -45 0 0 0 1 I I #coedge $-1 -1 $-1 $363 $281 $369 $484 reversed $265 $-1 #coedge $-1 -1 $-1 $281 $363 $339 $452 reversed $265 $-1 #ptlist-eye-attrib $-1 -1 $504 $-1 $282 #vertex $-1 -1 $-1 $282 $505 #straight-curve $-1 -1 $-1 45 -50 0 0 0 -1 I I #coedge $-1 -1 $-1 $339 $338 $283 $393 reversed $179 $-1 #edge $506 -1 $-1 $287 -0.785398163397448279 $507 0.785398163397448279 $283 $508 forward @7 unknown #coedge $-1 -1 $-1 $449 $501 $284 $395 forward $336 $-1 #edge $509 -1 $-1 $286 -0.785398163397448279 $507 0.785398163397448279 $394 $510 forward @7 unknown #id-tsl-attrib $-1 -1 $-1 $285 $208 3054 #point $-1 -1 $-1 50 -45 -45 #point $-1 -1 $-1 45 -50 -45 #coedge $-1 -1 $-1 $383 $382 $289 $400 reversed $384 $-1 #edge $511 -1 $-1 $402 -45 $313 45 $399 $512 forward @7 unknown #ptlist-eye-attrib $-1 -1 $513 $-1 $291 #vertex $-1 -1 $-1 $497 $514 #ellipse-curve $-1 -1 $-1 45 45 45 0 0 -1 3.535533905932739973 3.535533905932739973 0 1 I I #id-tsl-attrib $-1 -1 $515 $-1 $293 2999 #face $516 -1 $-1 $-1 $517 $5 $-1 $518 forward single #cone-surface $-1 -1 $-1 45 45 -2.5 0 0 -1 3.535533905932739973 3.535533905932739973 0 1 I I 0 1 5.000000000000003553 forward I I I I #coedge $-1 -1 $-1 $377 $376 $295 $408 reversed $271 $-1 #edge $519 -1 $-1 $298 -0.785398163397448279 $402 0.785398163397448279 $407 $520 forward @7 unknown #id-tsl-attrib $-1 -1 $-1 $297 $215 3050 #point $-1 -1 $-1 45 45 50 #coedge $-1 -1 $-1 $450 $300 $449 $419 reversed $413 $-1 #coedge $-1 -1 $-1 $300 $450 $432 $521 reversed $413 $-1 #loop $-1 -1 $-1 $-1 $412 $522 #ptlist-eye-attrib $-1 -1 $523 $-1 $301 #straight-curve $-1 -1 $-1 0 45 -50 -1 0 0 I I #coedge $-1 -1 $-1 $501 $449 $302 $417 reversed $336 $-1 #edge $524 -1 $-1 $313 -0.785398163397448279 $305 0.785398163397448279 $302 $525 forward @7 unknown #id-tsl-attrib $-1 -1 $-1 $304 $220 3046 #edge $526 -1 $-1 $507 -45 $305 45 $411 $527 forward @7 unknown #point $-1 -1 $-1 45 45 -50 #id-tsl-attrib $-1 -1 $-1 $307 $222 3028 #point $-1 -1 $-1 -45 45 -50 #colour-tsl-attrib $-1 -1 $-1 $310 $223 1 #id-tsl-attrib $-1 -1 $-1 $312 $225 3057 #point $-1 -1 $-1 50 45 -45 #coedge $-1 -1 $-1 $316 $315 $528 $529 reversed $317 $-1 #coedge $-1 -1 $-1 $320 $530 $315 $428 forward $433 $-1 #edge $531 -1 $-1 $532 -45 $232 45 $315 $533 forward @7 unknown #coedge $-1 -1 $-1 $534 $324 $316 $430 forward $437 $-1 #edge $535 -1 $-1 $237 -45 $536 45 $316 $537 forward @7 unknown #id-tsl-attrib $-1 -1 $-1 $318 $228 3027 #coedge $-1 -1 $-1 $530 $320 $412 $521 forward $433 $-1 #loop $-1 -1 $-1 $-1 $432 $331 #ptlist-eye-attrib $-1 -1 $538 $-1 $321 #ellipse-curve $-1 -1 $-1 -45 45 -45 0 -1 0 -3.535533905932739973 0 -3.535533905932739973 1 I I #coedge $-1 -1 $-1 $324 $534 $344 $462 forward $437 $-1 #loop $-1 -1 $-1 $-1 $436 $539 #ptlist-eye-attrib $-1 -1 $540 $-1 $325 #ellipse-curve $-1 -1 $-1 -45 45 45 0 -1 0 -3.535533905932739973 0 3.535533905932739973 1 I I #id-tsl-attrib $-1 -1 $541 $-1 $326 2975 #sphere-surface $-1 -1 $-1 -45 45 45 5 1 0 0 0 0 1 forward_v I I I I #colour-tsl-attrib $-1 -1 $-1 $330 $240 1 #id-tsl-attrib $-1 -1 $542 $-1 $331 2978 #face $543 -1 $-1 $544 $455 $5 $-1 $545 forward single #cone-surface $-1 -1 $-1 -45 0 -45 0 1 0 -3.535533905932739973 0 -3.535533905932739973 1 I I 0 1 5.000000000000003553 forward I I I I #colour-tsl-attrib $-1 -1 $-1 $334 $244 1 #id-tsl-attrib $-1 -1 $546 $-1 $335 2991 #sphere-surface $-1 -1 $-1 45 45 -45 5 1 0 0 0 0 1 forward_v I I I I #coedge $-1 -1 $-1 $416 $394 $411 $419 forward $336 $-1 #coedge $-1 -1 $-1 $412 $411 $338 $451 reversed $413 $-1 #edge $547 -1 $-1 $457 -45 $507 45 $450 $548 forward @7 unknown #edge $549 -1 $-1 $287 -45 $458 45 $388 $550 forward @7 unknown #coedge $-1 -1 $-1 $454 $340 $551 $552 reversed $455 $-1 #coedge $-1 -1 $-1 $340 $453 $530 $553 forward $455 $-1 #loop $-1 -1 $-1 $-1 $340 $444 #ptlist-eye-attrib $-1 -1 $554 $-1 $341 #vertex $-1 -1 $-1 $521 $555 #vertex $-1 -1 $-1 $452 $556 #ellipse-curve $-1 -1 $-1 -45 -45 -45 -1 0 0 0 -3.535533905932739973 -3.535533905932739973 1 I I #coedge $-1 -1 $-1 $460 $460 $356 $471 forward $342 $-1 #coedge $-1 -1 $-1 $345 $344 $370 $485 reversed $346 $-1 #edge $557 -1 $-1 $491 -45 $253 45 $344 $558 forward @7 unknown #edge $559 -1 $-1 $298 -45 $380 45 $345 $560 forward @7 unknown #id-tsl-attrib $-1 -1 $-1 $347 $251 3049 #colour-tsl-attrib $-1 -1 $-1 $352 $257 7 #id-tsl-attrib $-1 -1 $561 $-1 $353 2966 #face $562 -1 $-1 $563 $564 $5 $-1 $565 reversed single #loop $-1 -1 $-1 $-1 $566 $353 #sphere-surface $-1 -1 $-1 65 25 -25 20 1 0 0 0 0 1 forward_v I I I I #coedge $-1 -1 $-1 $470 $470 $483 $567 reversed $354 $-1 #edge $568 -1 $-1 $569 -3.141592653589800666 $569 3.141592653589785566 $460 $570 forward @7 unknown #ptlist-eye-attrib $-1 -1 $571 $-1 $357 #vertex $-1 -1 $-1 $357 $572 #ellipse-curve $-1 -1 $-1 -50 20 20 1 0 0 0 0 -13.22875655532300065 1 I I #id-tsl-attrib $-1 -1 $-1 $358 $261 3009 #point $-1 -1 $-1 -50 -19.99999999999990052 33.22875655532300243 #coedge $-1 -1 $-1 $573 $551 $363 $478 forward $574 $-1 #edge $575 -1 $-1 $458 -45 $490 45 $363 $576 forward @7 unknown #colour-tsl-attrib $-1 -1 $-1 $365 $270 1 #id-tsl-attrib $-1 -1 $577 $-1 $366 2998 #sphere-surface $-1 -1 $-1 45 45 45 5 1 0 0 0 0 1 forward_v I I I I #loop $-1 -1 $-1 $578 $579 $270 #coedge $-1 -1 $-1 $483 $483 $470 $567 forward $367 $-1 #edge $580 -1 $-1 $490 -45 $390 45 $387 $581 forward @7 unknown #edge $582 -1 $-1 $380 -45 $491 45 $461 $583 forward @7 unknown #coedge $-1 -1 $-1 $487 $371 $534 $584 reversed $488 $-1 #coedge $-1 -1 $-1 $371 $486 $573 $585 forward $488 $-1 #loop $-1 -1 $-1 $-1 $371 $586 #ptlist-eye-attrib $-1 -1 $587 $-1 $372 #vertex $-1 -1 $-1 $372 $588 #vertex $-1 -1 $-1 $485 $589 #ellipse-curve $-1 -1 $-1 -45 -45 45 -1 0 0 0 -3.535533905932739973 3.535533905932739973 1 I I #ptlist-eye-attrib $-1 -1 $590 $-1 $374 #ellipse-curve $-1 -1 $-1 45 -45 45 -1 0 0 0 -3.535533905932739973 3.535533905932739973 1 I I #ptlist-eye-attrib $-1 -1 $591 $-1 $375 #ellipse-curve $-1 -1 $-1 45 -45 45 0 0 1 3.535533905932739973 -3.535533905932739973 0 1 I I #edge $592 -1 $-1 $379 -45 $402 45 $383 $593 forward @7 unknown #id-tsl-attrib $-1 -1 $-1 $378 $277 3062 #point $-1 -1 $-1 50 -45 45 #point $-1 -1 $-1 45 -45 50 #coedge $-1 -1 $-1 $394 $416 $382 $502 forward $336 $-1 #edge $594 -1 $-1 $313 -45 $286 45 $382 $595 forward @7 unknown #id-tsl-attrib $-1 -1 $-1 $385 $280 3060 #id-tsl-attrib $-1 -1 $-1 $389 $282 3058 #point $-1 -1 $-1 45 -50 45 #ptlist-eye-attrib $-1 -1 $596 $-1 $393 #vertex $-1 -1 $-1 $451 $597 #ellipse-curve $-1 -1 $-1 45 -45 -45 1 0 0 0 -3.535533905932739973 -3.535533905932739973 1 I I #ptlist-eye-attrib $-1 -1 $598 $-1 $395 #ellipse-curve $-1 -1 $-1 45 -45 -45 0 1 0 3.535533905932739973 0 -3.535533905932739973 1 I I #ptlist-eye-attrib $-1 -1 $599 $-1 $400 #straight-curve $-1 -1 $-1 50 45 0 0 0 -1 I I #id-tsl-attrib $-1 -1 $-1 $401 $291 3069 #point $-1 -1 $-1 50 45 45 #colour-tsl-attrib $-1 -1 $-1 $404 $293 1 #id-tsl-attrib $-1 -1 $600 $-1 $405 3000 #loop $-1 -1 $-1 $601 $602 $405 #plane-surface $-1 -1 $-1 0 0 50 0 0 1 1 0 0 forward_v I I I I #ptlist-eye-attrib $-1 -1 $603 $-1 $408 #ellipse-curve $-1 -1 $-1 45 45 45 0 1 0 3.535533905932739973 0 3.535533905932739973 1 I I #edge $604 -1 $-1 $308 -45 $457 45 $412 $605 forward @7 unknown #face $606 -1 $-1 $223 $607 $5 $-1 $608 reversed single #id-tsl-attrib $-1 -1 $-1 $414 $301 3042 #ptlist-eye-attrib $-1 -1 $609 $-1 $417 #ellipse-curve $-1 -1 $-1 45 45 -45 0 1 0 3.535533905932739973 0 -3.535533905932739973 1 I I #ptlist-eye-attrib $-1 -1 $610 $-1 $419 #straight-curve $-1 -1 $-1 45 0 -50 0 1 0 I I #coedge $-1 -1 $-1 $551 $573 $426 $529 forward $574 $-1 #edge $611 -1 $-1 $536 -45 $532 45 $426 $612 forward @7 unknown #coedge $-1 -1 $-1 $427 $432 $454 $553 reversed $433 $-1 #ptlist-eye-attrib $-1 -1 $613 $-1 $428 #vertex $-1 -1 $-1 $428 $614 #straight-curve $-1 -1 $-1 -50 0 -45 0 1 0 I I #coedge $-1 -1 $-1 $436 $429 $486 $584 forward $437 $-1 #ptlist-eye-attrib $-1 -1 $615 $-1 $430 #vertex $-1 -1 $-1 $529 $616 #straight-curve $-1 -1 $-1 -50 0 45 0 -1 0 I I #id-tsl-attrib $-1 -1 $-1 $434 $321 3029 #face $617 -1 $-1 $522 $437 $5 $-1 $618 forward single #id-tsl-attrib $-1 -1 $-1 $438 $325 3024 #colour-tsl-attrib $-1 -1 $-1 $440 $326 1 #colour-tsl-attrib $-1 -1 $-1 $443 $331 1 #id-tsl-attrib $-1 -1 $619 $-1 $444 2979 #face $620 -1 $-1 $586 $574 $5 $-1 $621 forward single #sphere-surface $-1 -1 $-1 -45 -45 -45 5 1 0 0 0 0 1 forward_v I I I I #colour-tsl-attrib $-1 -1 $-1 $447 $335 1 #ptlist-eye-attrib $-1 -1 $622 $-1 $451 #straight-curve $-1 -1 $-1 0 -45 -50 1 0 0 I I #ptlist-eye-attrib $-1 -1 $623 $-1 $452 #straight-curve $-1 -1 $-1 0 -50 -45 -1 0 0 I I #coedge $-1 -1 $-1 $477 $528 $453 $552 forward $574 $-1 #edge $624 -1 $-1 $532 -0.785398163397448279 $458 0.785398163397448279 $551 $625 forward @7 unknown #edge $626 -1 $-1 $532 -0.785398163397448279 $457 0.785398163397448279 $454 $627 forward @7 unknown #id-tsl-attrib $-1 -1 $-1 $456 $341 3033 #point $-1 -1 $-1 -45 -45 -50 #point $-1 -1 $-1 -45 -50 -45 #ptlist-eye-attrib $-1 -1 $628 $-1 $462 #straight-curve $-1 -1 $-1 -45 0 50 0 1 0 I I #ptlist-eye-attrib $-1 -1 $629 $-1 $463 #straight-curve $-1 -1 $-1 45 0 50 0 -1 0 I I #colour-tsl-attrib $-1 -1 $-1 $466 $353 7 #id-tsl-attrib $-1 -1 $630 $-1 $467 2967 #face $631 -1 $-1 $632 $633 $5 $-1 $634 reversed single #loop $-1 -1 $-1 $-1 $635 $467 #sphere-surface $-1 -1 $-1 65 -25 25 20 1 0 0 0 0 1 forward_v I I I I #coedge $-1 -1 $-1 $566 $566 $579 $636 reversed $468 $-1 #edge $637 -1 $-1 $638 -3.141592653589800221 $638 3.141592653589786011 $483 $639 forward @7 unknown #ptlist-eye-attrib $-1 -1 $640 $-1 $471 #vertex $-1 -1 $-1 $471 $641 #ellipse-curve $-1 -1 $-1 -50 20 -20 1 0 0 0 0 -13.22875655532300065 1 I I #id-tsl-attrib $-1 -1 $-1 $472 $357 3010 #point $-1 -1 $-1 -50 20.00000000000009948 33.22875655532300243 #coedge $-1 -1 $-1 $528 $477 $487 $585 reversed $574 $-1 #loop $-1 -1 $-1 $-1 $477 $544 #ptlist-eye-attrib $-1 -1 $642 $-1 $478 #straight-curve $-1 -1 $-1 -45 -50 0 0 0 1 I I #colour-tsl-attrib $-1 -1 $-1 $480 $366 1 #loop $-1 -1 $-1 $384 $643 $270 #coedge $-1 -1 $-1 $579 $579 $566 $636 forward $482 $-1 #ptlist-eye-attrib $-1 -1 $644 $-1 $484 #straight-curve $-1 -1 $-1 0 -50 45 1 0 0 I I #ptlist-eye-attrib $-1 -1 $645 $-1 $485 #straight-curve $-1 -1 $-1 0 -45 50 -1 0 0 I I #edge $646 -1 $-1 $536 -0.785398163397448279 $491 0.785398163397448279 $534 $647 forward @7 unknown #edge $648 -1 $-1 $536 -0.785398163397448279 $490 0.785398163397448279 $487 $649 forward @7 unknown #face $650 -1 $-1 $539 $488 $5 $-1 $651 forward single #id-tsl-attrib $-1 -1 $-1 $489 $372 3038 #point $-1 -1 $-1 -45 -50 45 #point $-1 -1 $-1 -45 -45 50 #id-tsl-attrib $-1 -1 $-1 $493 $374 3063 #id-tsl-attrib $-1 -1 $-1 $495 $375 3061 #ptlist-eye-attrib $-1 -1 $652 $-1 $497 #straight-curve $-1 -1 $-1 50 0 45 0 1 0 I I #ptlist-eye-attrib $-1 -1 $653 $-1 $502 #straight-curve $-1 -1 $-1 50 0 -45 0 -1 0 I I #id-tsl-attrib $-1 -1 $-1 $506 $393 3051 #point $-1 -1 $-1 45 -45 -50 #id-tsl-attrib $-1 -1 $-1 $509 $395 3053 #id-tsl-attrib $-1 -1 $-1 $511 $400 3068 #colour-tsl-attrib $-1 -1 $-1 $516 $405 1 #loop $-1 -1 $-1 $654 $655 $405 #coedge $-1 -1 $-1 $602 $602 $656 $657 forward $517 $-1 #id-tsl-attrib $-1 -1 $-1 $519 $408 3066 #ptlist-eye-attrib $-1 -1 $658 $-1 $521 #straight-curve $-1 -1 $-1 -45 0 -50 0 -1 0 I I #id-tsl-attrib $-1 -1 $659 $-1 $522 2983 #loop $-1 -1 $-1 $660 $661 $522 #plane-surface $-1 -1 $-1 0 0 -50 0 0 1 1 0 0 forward_v I I I I #id-tsl-attrib $-1 -1 $-1 $524 $417 3055 #id-tsl-attrib $-1 -1 $-1 $526 $419 3043 #ptlist-eye-attrib $-1 -1 $662 $-1 $529 #straight-curve $-1 -1 $-1 -50 -45 0 0 0 -1 I I #id-tsl-attrib $-1 -1 $-1 $531 $428 3032 #point $-1 -1 $-1 -50 -45 -45 #id-tsl-attrib $-1 -1 $-1 $535 $430 3041 #point $-1 -1 $-1 -50 -45 45 #id-tsl-attrib $-1 -1 $663 $-1 $539 2982 #cone-surface $-1 -1 $-1 -45 0 45 0 -1 0 -3.535533905932739973 0 3.535533905932739973 1 I I 0 1 5.000000000000003553 forward I I I I #colour-tsl-attrib $-1 -1 $-1 $543 $444 1 #id-tsl-attrib $-1 -1 $664 $-1 $544 2980 #cone-surface $-1 -1 $-1 -45 -45 0 0 0 -1 -3.535533905932739973 -3.535533905932739973 0 1 I I 0 1 5.000000000000003553 forward I I I I #id-tsl-attrib $-1 -1 $-1 $547 $451 3044 #id-tsl-attrib $-1 -1 $-1 $549 $452 3052 #ptlist-eye-attrib $-1 -1 $665 $-1 $552 #ellipse-curve $-1 -1 $-1 -45 -45 -45 0 0 1 -3.535533905932739973 -3.535533905932739973 0 1 I I #ptlist-eye-attrib $-1 -1 $666 $-1 $553 #ellipse-curve $-1 -1 $-1 -45 -45 -45 0 -1 0 -3.535533905932739973 0 -3.535533905932739973 1 I I #id-tsl-attrib $-1 -1 $-1 $557 $462 3040 #id-tsl-attrib $-1 -1 $-1 $559 $463 3067 #colour-tsl-attrib $-1 -1 $-1 $562 $467 7 #id-tsl-attrib $-1 -1 $667 $-1 $563 2968 #face $668 -1 $-1 $669 $670 $5 $-1 $671 reversed single #loop $-1 -1 $-1 $-1 $672 $563 #sphere-surface $-1 -1 $-1 20 20 -65 20 1 0 0 0 0 1 forward_v I I I I #coedge $-1 -1 $-1 $635 $635 $643 $673 reversed $564 $-1 #edge $674 -1 $-1 $675 -3.141592653589800666 $675 3.141592653589785566 $579 $676 forward @7 unknown #ptlist-eye-attrib $-1 -1 $677 $-1 $567 #vertex $-1 -1 $-1 $567 $678 #ellipse-curve $-1 -1 $-1 50 0 0 -1 0 0 0 0 13.22875655532300065 1 I I #id-tsl-attrib $-1 -1 $-1 $568 $471 3011 #point $-1 -1 $-1 -50 20.00000000000009948 -6.771243444677049972 #id-tsl-attrib $-1 -1 $-1 $575 $478 3035 #coedge $-1 -1 $-1 $643 $643 $635 $673 forward $578 $-1 #id-tsl-attrib $-1 -1 $-1 $580 $484 3059 #id-tsl-attrib $-1 -1 $-1 $582 $485 3064 #ptlist-eye-attrib $-1 -1 $679 $-1 $584 #ellipse-curve $-1 -1 $-1 -45 -45 45 0 1 0 -3.535533905932739973 0 3.535533905932739973 1 I I #ptlist-eye-attrib $-1 -1 $680 $-1 $585 #ellipse-curve $-1 -1 $-1 -45 -45 45 0 0 1 -3.535533905932739973 -3.535533905932739973 0 1 I I #id-tsl-attrib $-1 -1 $681 $-1 $586 2981 #sphere-surface $-1 -1 $-1 -45 -45 45 5 1 0 0 0 0 1 forward_v I I I I #id-tsl-attrib $-1 -1 $-1 $592 $497 3065 #id-tsl-attrib $-1 -1 $-1 $594 $502 3056 #loop $-1 -1 $-1 $682 $683 $405 #coedge $-1 -1 $-1 $655 $655 $684 $685 forward $601 $-1 #coedge $-1 -1 $-1 $656 $656 $602 $657 reversed $686 $-1 #edge $687 -1 $-1 $688 -3.141592653589800221 $688 3.141592653589786011 $602 $689 forward @7 unknown #id-tsl-attrib $-1 -1 $-1 $604 $521 3030 #colour-tsl-attrib $-1 -1 $-1 $606 $522 1 #loop $-1 -1 $-1 $413 $690 $522 #coedge $-1 -1 $-1 $661 $661 $672 $691 forward $607 $-1 #id-tsl-attrib $-1 -1 $-1 $611 $529 3037 #colour-tsl-attrib $-1 -1 $-1 $617 $539 1 #colour-tsl-attrib $-1 -1 $-1 $620 $544 1 #id-tsl-attrib $-1 -1 $-1 $624 $552 3034 #id-tsl-attrib $-1 -1 $-1 $626 $553 3031 #colour-tsl-attrib $-1 -1 $-1 $631 $563 7 #id-tsl-attrib $-1 -1 $692 $-1 $632 2969 #face $693 -1 $-1 $694 $686 $5 $-1 $695 reversed single #loop $-1 -1 $-1 $-1 $696 $632 #sphere-surface $-1 -1 $-1 -20 -20 -65 20 1 0 0 0 0 1 forward_v I I I I #coedge $-1 -1 $-1 $672 $672 $661 $691 reversed $633 $-1 #edge $697 -1 $-1 $698 -3.141592653589800666 $698 3.141592653589785566 $643 $699 forward @7 unknown #ptlist-eye-attrib $-1 -1 $700 $-1 $636 #vertex $-1 -1 $-1 $636 $701 #ellipse-curve $-1 -1 $-1 50 25 -25 -1 0 0 0 0 13.22875655532300065 1 I I #id-tsl-attrib $-1 -1 $-1 $637 $567 3012 #point $-1 -1 $-1 50 9.237596680215350222e-14 -13.22875655532300065 #id-tsl-attrib $-1 -1 $-1 $646 $584 3039 #id-tsl-attrib $-1 -1 $-1 $648 $585 3036 #colour-tsl-attrib $-1 -1 $-1 $650 $586 1 #loop $-1 -1 $-1 $702 $703 $405 #coedge $-1 -1 $-1 $683 $683 $704 $705 forward $654 $-1 #coedge $-1 -1 $-1 $684 $684 $655 $685 reversed $706 $-1 #edge $707 -1 $-1 $708 -3.141592653589800666 $708 3.141592653589785566 $655 $709 forward @7 unknown #loop $-1 -1 $-1 $-1 $656 $669 #ptlist-eye-attrib $-1 -1 $710 $-1 $657 #vertex $-1 -1 $-1 $657 $711 #ellipse-curve $-1 -1 $-1 0 0 50 0 0 -1 0 13.22875655532300065 0 1 I I #coedge $-1 -1 $-1 $690 $690 $696 $712 forward $660 $-1 #edge $713 -1 $-1 $714 -3.141592653589800666 $714 3.141592653589785566 $661 $715 forward @7 unknown #colour-tsl-attrib $-1 -1 $-1 $668 $632 7 #id-tsl-attrib $-1 -1 $716 $-1 $669 2970 #face $717 -1 $-1 $718 $706 $5 $-1 $719 reversed single #sphere-surface $-1 -1 $-1 0 0 65 20 1 0 0 0 0 1 forward_v I I I I #coedge $-1 -1 $-1 $696 $696 $690 $712 reversed $670 $-1 #ptlist-eye-attrib $-1 -1 $720 $-1 $673 #vertex $-1 -1 $-1 $673 $721 #ellipse-curve $-1 -1 $-1 50 -25 25 -1 0 0 0 0 13.22875655532300065 1 I I #id-tsl-attrib $-1 -1 $-1 $674 $636 3013 #point $-1 -1 $-1 50 25.00000000000009948 -38.22875655532300243 #loop $-1 -1 $-1 $346 $722 $405 #coedge $-1 -1 $-1 $703 $703 $723 $724 forward $682 $-1 #coedge $-1 -1 $-1 $704 $704 $683 $705 reversed $725 $-1 #edge $726 -1 $-1 $727 -3.141592653589800666 $727 3.141592653589785566 $683 $728 forward @7 unknown #loop $-1 -1 $-1 $-1 $684 $694 #ptlist-eye-attrib $-1 -1 $729 $-1 $685 #vertex $-1 -1 $-1 $685 $730 #ellipse-curve $-1 -1 $-1 25 -25 50 0 0 -1 0 13.22875655532300065 0 1 I I #id-tsl-attrib $-1 -1 $-1 $687 $657 3017 #point $-1 -1 $-1 9.237596680215350222e-14 -13.22875655532300065 50 #edge $731 -1 $-1 $732 -3.141592653589800666 $732 3.141592653589785566 $690 $733 forward @7 unknown #ptlist-eye-attrib $-1 -1 $734 $-1 $691 #vertex $-1 -1 $-1 $691 $735 #ellipse-curve $-1 -1 $-1 20 20 -50 0 0 1 0 -13.22875655532300065 0 1 I I #colour-tsl-attrib $-1 -1 $-1 $693 $669 7 #id-tsl-attrib $-1 -1 $736 $-1 $694 2971 #face $737 -1 $-1 $738 $725 $5 $-1 $739 reversed single #sphere-surface $-1 -1 $-1 25 -25 65 20 1 0 0 0 0 1 forward_v I I I I #id-tsl-attrib $-1 -1 $-1 $697 $673 3014 #point $-1 -1 $-1 50 -24.99999999999990052 11.77124344467699935 #coedge $-1 -1 $-1 $722 $722 $740 $741 forward $702 $-1 #coedge $-1 -1 $-1 $723 $723 $703 $724 reversed $742 $-1 #edge $743 -1 $-1 $744 -3.141592653589800666 $744 3.141592653589785566 $703 $745 forward @7 unknown #loop $-1 -1 $-1 $-1 $704 $718 #ptlist-eye-attrib $-1 -1 $746 $-1 $705 #vertex $-1 -1 $-1 $705 $747 #ellipse-curve $-1 -1 $-1 -25 -25 50 0 0 -1 0 13.22875655532300065 0 1 I I #id-tsl-attrib $-1 -1 $-1 $707 $685 3018 #point $-1 -1 $-1 25.00000000000009948 -38.22875655532300243 50 #ptlist-eye-attrib $-1 -1 $748 $-1 $712 #vertex $-1 -1 $-1 $712 $749 #ellipse-curve $-1 -1 $-1 -20 -20 -50 0 0 1 0 -13.22875655532300065 0 1 I I #id-tsl-attrib $-1 -1 $-1 $713 $691 3015 #point $-1 -1 $-1 20.00000000000009948 33.22875655532300243 -50 #colour-tsl-attrib $-1 -1 $-1 $717 $694 7 #id-tsl-attrib $-1 -1 $750 $-1 $718 2972 #face $751 -1 $-1 $752 $742 $5 $-1 $753 reversed single #sphere-surface $-1 -1 $-1 -25 -25 65 20 1 0 0 0 0 1 forward_v I I I I #coedge $-1 -1 $-1 $740 $740 $722 $741 reversed $754 $-1 #edge $755 -1 $-1 $756 -3.141592653589800666 $756 3.141592653589785566 $722 $757 forward @7 unknown #loop $-1 -1 $-1 $-1 $723 $738 #ptlist-eye-attrib $-1 -1 $758 $-1 $724 #vertex $-1 -1 $-1 $724 $759 #ellipse-curve $-1 -1 $-1 -25 25 50 0 0 -1 0 13.22875655532300065 0 1 I I #id-tsl-attrib $-1 -1 $-1 $726 $705 3019 #point $-1 -1 $-1 -24.99999999999990052 -38.22875655532300243 50 #id-tsl-attrib $-1 -1 $-1 $731 $712 3016 #point $-1 -1 $-1 -19.99999999999990052 -6.771243444677049972 -50 #colour-tsl-attrib $-1 -1 $-1 $737 $718 7 #id-tsl-attrib $-1 -1 $760 $-1 $738 2973 #face $761 -1 $-1 $326 $754 $5 $-1 $762 reversed single #sphere-surface $-1 -1 $-1 -25 25 65 20 1 0 0 0 0 1 forward_v I I I I #loop $-1 -1 $-1 $-1 $740 $752 #ptlist-eye-attrib $-1 -1 $763 $-1 $741 #vertex $-1 -1 $-1 $741 $764 #ellipse-curve $-1 -1 $-1 25 25 50 0 0 -1 0 13.22875655532300065 0 1 I I #id-tsl-attrib $-1 -1 $-1 $743 $724 3020 #point $-1 -1 $-1 -24.99999999999990052 11.77124344467699935 50 #colour-tsl-attrib $-1 -1 $-1 $751 $738 7 #id-tsl-attrib $-1 -1 $765 $-1 $752 2974 #sphere-surface $-1 -1 $-1 25 25 65 20 1 0 0 0 0 1 forward_v I I I I #id-tsl-attrib $-1 -1 $-1 $755 $741 3021 #point $-1 -1 $-1 25.00000000000009948 11.77124344467699935 50 #colour-tsl-attrib $-1 -1 $-1 $761 $752 7 #End-of-ACIS-data 